<svg xmlns="http://www.w3.org/2000/svg" width="44" height="45" viewBox="0 0 44 45">
  <metadata><?xpacket begin="﻿" id="W5M0MpCehiHzreSzNTczkc9d"?>
<x:xmpmeta xmlns:x="adobe:ns:meta/" x:xmptk="Adobe XMP Core 5.6-c140 79.160451, 2017/05/06-01:08:21        ">
   <rdf:RDF xmlns:rdf="http://www.w3.org/1999/02/22-rdf-syntax-ns#">
      <rdf:Description rdf:about=""/>
   </rdf:RDF>
</x:xmpmeta>
                                                                                                    
                                                                                                    
                                                                                                    
                                                                                                    
                                                                                                    
                                                                                                    
                                                                                                    
                                                                                                    
                                                                                                    
                                                                                                    
                                                                                                    
                                                                                                    
                                                                                                    
                                                                                                    
                                                                                                    
                                                                                                    
                                                                                                    
                                                                                                    
                                                                                                    
                                                                                                    
                           
<?xpacket end="w"?></metadata>
<defs>
    <style>
      .cls-1 {
        fill: #1d9f51;
        fill-rule: evenodd;
      }
    </style>
  </defs>
  <path id="Like" class="cls-1" d="M582.679,1904.59a5.543,5.543,0,0,0,1.315-3.73,5.735,5.735,0,0,0-1.23-3.24,5.015,5.015,0,0,0-1.2-5.79c-1.5-1.36-4.061-1.97-7.6-1.8a29.524,29.524,0,0,0-4.657.59h-0.009c-0.473.08-.975,0.19-1.486,0.3-0.038-.6.066-2.1,1.183-5.47,1.325-4.01,1.249-7.07-.246-9.13a6.041,6.041,0,0,0-4.818-2.32,2.373,2.373,0,0,0-1.827.83c-1.05,1.21-.927,3.45-0.795,4.49-1.249,3.33-4.751,11.5-7.714,13.76a1,1,0,0,0-.151.14,10.135,10.135,0,0,0-1.856,2.76,3.933,3.933,0,0,0-1.874-.47h-5.773a3.93,3.93,0,0,0-3.938,3.92v15.29a3.928,3.928,0,0,0,3.938,3.91h5.773a3.954,3.954,0,0,0,2.272-.71l2.224,0.26a95.467,95.467,0,0,0,12.617.69c1.127,0.08,2.187.13,3.171,0.13a20.892,20.892,0,0,0,4.4-.4c2.9-.61,4.874-1.83,5.878-3.63a5.724,5.724,0,0,0,.643-3.6,6,6,0,0,0,2.149-4.89A6.33,6.33,0,0,0,582.679,1904.59Zm-38.741,11.5a1.378,1.378,0,0,1-1.382-1.37v-15.3a1.379,1.379,0,0,1,1.382-1.38h5.773a1.38,1.38,0,0,1,1.382,1.38v15.29a1.377,1.377,0,0,1-1.382,1.37h-5.773v0.01Zm36.318-12.6a1.268,1.268,0,0,0-.171,1.54,3.587,3.587,0,0,1-1.344,4.82,1.283,1.283,0,0,0-.435,1.45,3.31,3.31,0,0,1-.256,2.43c-0.634,1.13-2.044,1.94-4.183,2.39a25.181,25.181,0,0,1-6.9.21h-0.132a94.02,94.02,0,0,1-12.3-.67H554.52l-0.956-.11a4.1,4.1,0,0,0,.085-0.83v-15.3a3.955,3.955,0,0,0-.18-1.17,7.884,7.884,0,0,1,1.761-3.23c4.249-3.35,8.4-14.65,8.584-15.14a1.178,1.178,0,0,0,.057-0.63,5.863,5.863,0,0,1,.123-2.73,3.406,3.406,0,0,1,2.67,1.27c0.965,1.33.927,3.7-.114,6.84-1.59,4.79-1.723,7.32-.464,8.43a2.074,2.074,0,0,0,2.064.36q0.865-.2,1.647-0.33a0.518,0.518,0,0,1,.123-0.02c2.905-.64,8.111-1.02,9.919.62a2.689,2.689,0,0,1,.322,3.43,1.258,1.258,0,0,0,.227,1.64,3.556,3.556,0,0,1,1.051,2.19A3.486,3.486,0,0,1,580.256,1903.49Z" transform="translate(-540 -1874)"/>
</svg>
