<svg xmlns="http://www.w3.org/2000/svg" width="17" height="24" viewBox="0 0 17 24">
  <metadata><?xpacket begin="﻿" id="W5M0MpCehiHzreSzNTczkc9d"?>
<x:xmpmeta xmlns:x="adobe:ns:meta/" x:xmptk="Adobe XMP Core 5.6-c140 79.160451, 2017/05/06-01:08:21        ">
   <rdf:RDF xmlns:rdf="http://www.w3.org/1999/02/22-rdf-syntax-ns#">
      <rdf:Description rdf:about=""/>
   </rdf:RDF>
</x:xmpmeta>
                                                                                                    
                                                                                                    
                                                                                                    
                                                                                                    
                                                                                                    
                                                                                                    
                                                                                                    
                                                                                                    
                                                                                                    
                                                                                                    
                                                                                                    
                                                                                                    
                                                                                                    
                                                                                                    
                                                                                                    
                                                                                                    
                                                                                                    
                                                                                                    
                                                                                                    
                                                                                                    
                           
<?xpacket end="w"?></metadata>
<defs>
    <style>
      .cls-1 {
        fill: #fff;
        fill-rule: evenodd;
      }
    </style>
  </defs>
  <path id="Location" class="cls-1" d="M536.578,3461.26a3.07,3.07,0,1,0,3.1,3.07A3.092,3.092,0,0,0,536.578,3461.26Zm0,5.26a2.19,2.19,0,1,1,2.216-2.19A2.2,2.2,0,0,1,536.578,3466.52Zm5.932-8.06a8.571,8.571,0,0,0-12.02,0,9.486,9.486,0,0,0-.8,11.81l6.81,9.73,6.8-9.71A9.5,9.5,0,0,0,542.51,3458.46Zm0.071,11.32-6.081,8.68-6.091-8.7a8.574,8.574,0,0,1,.708-10.68,7.686,7.686,0,0,1,10.766,0A8.586,8.586,0,0,1,542.581,3469.78Z" transform="translate(-528 -3456)"/>
</svg>
