<svg xmlns="http://www.w3.org/2000/svg" width="54.969" height="45" viewBox="0 0 54.969 45">
  <metadata><?xpacket begin="﻿" id="W5M0MpCehiHzreSzNTczkc9d"?>
<x:xmpmeta xmlns:x="adobe:ns:meta/" x:xmptk="Adobe XMP Core 5.6-c140 79.160451, 2017/05/06-01:08:21        ">
   <rdf:RDF xmlns:rdf="http://www.w3.org/1999/02/22-rdf-syntax-ns#">
      <rdf:Description rdf:about=""/>
   </rdf:RDF>
</x:xmpmeta>
                                                                                                    
                                                                                                    
                                                                                                    
                                                                                                    
                                                                                                    
                                                                                                    
                                                                                                    
                                                                                                    
                                                                                                    
                                                                                                    
                                                                                                    
                                                                                                    
                                                                                                    
                                                                                                    
                                                                                                    
                                                                                                    
                                                                                                    
                                                                                                    
                                                                                                    
                                                                                                    
                           
<?xpacket end="w"?></metadata>
<defs>
    <style>
      .cls-1 {
        fill: #1d9f51;
        fill-rule: evenodd;
      }
    </style>
  </defs>
  <path id="Payment" class="cls-1" d="M970.324,1905.22h14.662a0.86,0.86,0,0,0,.916-0.91v-8.27a0.868,0.868,0,0,0-.916-0.92H970.324a0.868,0.868,0,0,0-.916.92v8.27A0.86,0.86,0,0,0,970.324,1905.22Zm0.916-8.26h12.829v6.43H971.24v-6.43Zm-25.658-3.67h7.331a0.92,0.92,0,0,0,0-1.84h-7.331A0.92,0.92,0,0,0,945.582,1893.29Zm11,0h7.331a0.92,0.92,0,0,0,0-1.84h-7.331A0.92,0.92,0,0,0,956.578,1893.29Zm-11,3.67H957.5a0.92,0.92,0,0,0,0-1.84H945.582A0.92,0.92,0,0,0,945.582,1896.96Zm18.327-1.84H961.16a0.92,0.92,0,0,0,0,1.84h2.749A0.92,0.92,0,0,0,963.909,1895.12Zm31.248-11.39a3.418,3.418,0,0,0-2.474-1.37l-2.2-.27v-4.42a3.678,3.678,0,0,0-3.666-3.67H944.665a3.677,3.677,0,0,0-3.665,3.67v29.39a3.682,3.682,0,0,0,2.626,3.52,3.567,3.567,0,0,0,3.239,3.64L989.2,1919h0.367a3.674,3.674,0,0,0,3.665-3.12l2.749-29.48A3.592,3.592,0,0,0,995.157,1883.73Zm-52.324-3.3h45.818v5.51H942.833v-5.51Zm1.832-4.59h42.153a1.835,1.835,0,0,1,1.833,1.83v0.92H942.833v-0.92A1.834,1.834,0,0,1,944.665,1875.84Zm-1.832,31.22v-19.28h45.818v19.28a1.843,1.843,0,0,1-1.833,1.84H944.666A1.843,1.843,0,0,1,942.833,1907.06Zm51.316-21.03-2.749,29.48a1.848,1.848,0,0,1-2.016,1.65l-42.244-4.77a1.857,1.857,0,0,1-1.65-1.66h41.328a3.678,3.678,0,0,0,3.666-3.67v-23.23l2.108,0.18a1.585,1.585,0,0,1,1.191.64A1.869,1.869,0,0,1,994.149,1886.03Z" transform="translate(-941 -1874)"/>
</svg>
