<svg xmlns="http://www.w3.org/2000/svg" width="45" height="45" viewBox="0 0 45 45">
  <metadata><?xpacket begin="﻿" id="W5M0MpCehiHzreSzNTczkc9d"?>
<x:xmpmeta xmlns:x="adobe:ns:meta/" x:xmptk="Adobe XMP Core 5.6-c140 79.160451, 2017/05/06-01:08:21        ">
   <rdf:RDF xmlns:rdf="http://www.w3.org/1999/02/22-rdf-syntax-ns#">
      <rdf:Description rdf:about=""/>
   </rdf:RDF>
</x:xmpmeta>
                                                                                                    
                                                                                                    
                                                                                                    
                                                                                                    
                                                                                                    
                                                                                                    
                                                                                                    
                                                                                                    
                                                                                                    
                                                                                                    
                                                                                                    
                                                                                                    
                                                                                                    
                                                                                                    
                                                                                                    
                                                                                                    
                                                                                                    
                                                                                                    
                                                                                                    
                                                                                                    
                           
<?xpacket end="w"?></metadata>
<defs>
    <style>
      .cls-1 {
        fill: #1d9f51;
        fill-rule: evenodd;
      }
    </style>
  </defs>
  <path id="Travel_Guide_" data-name="Travel Guide " class="cls-1" d="M152.25,1889a2.251,2.251,0,0,0-2.25,2.25V1892h1.5v-0.75a0.75,0.75,0,0,1,1.5,0V1892h1.5v-0.75A2.251,2.251,0,0,0,152.25,1889Zm7.5,0a2.251,2.251,0,0,0-2.25,2.25V1892H159v-0.75a0.75,0.75,0,0,1,1.5,0V1892H162v-0.75A2.251,2.251,0,0,0,159.75,1889Zm-6.75,4.5v1.5a3,3,0,0,0,6,0v-1.5h-6Zm3,3a1.5,1.5,0,0,1-1.5-1.5h3A1.5,1.5,0,0,1,156,1896.5Zm11.25,3.75h-7.5v-0.08a9.006,9.006,0,0,0,5.114-6.67h0.886a2.25,2.25,0,0,0,0-4.5H165v-2.25a8.259,8.259,0,0,0-5.25-7.68v-1.32a3.75,3.75,0,0,0-7.5,0v1.32a8.259,8.259,0,0,0-5.25,7.68V1889h-0.75a2.25,2.25,0,0,0,0,4.5h0.886a9.006,9.006,0,0,0,5.114,6.67v0.08H139.237l-2.737-6.16v-4.34a0.753,0.753,0,0,0-.75-0.75H133.5v-15h-2.69a3.309,3.309,0,0,0-2.34.97,1.808,1.808,0,0,1-1.281.53H123v9h4.189a3.31,3.31,0,0,0,2.341-.97,1.807,1.807,0,0,1,1.28-.53H132v6h-0.75a0.753,0.753,0,0,0-.75.75v4.5a0.793,0.793,0,0,0,.053.28l3.746,9.36a3.737,3.737,0,0,0,3.482,2.36H144v12a0.753,0.753,0,0,0,.75.75h22.5a0.753,0.753,0,0,0,.75-0.75V1901A0.753,0.753,0,0,0,167.25,1900.25ZM165,1890.5h0.75a0.75,0.75,0,0,1,0,1.5H165v-1.5Zm-18,1.5h-0.75a0.75,0.75,0,0,1,0-1.5H147v1.5Zm6.75-14.25a2.25,2.25,0,0,1,4.5,0v0.75h-4.5v-0.75Zm1.5,2.25h1.5a6.759,6.759,0,0,1,6.708,6H162.75a2.251,2.251,0,0,1-2.25-2.25,0.753,0.753,0,0,0-.75-0.75h-1.5a0.753,0.753,0,0,0-.75.75,2.251,2.251,0,0,1-2.25,2.25h-6.708A6.759,6.759,0,0,1,155.25,1880Zm-6.75,12v-4.5h6.75a3.76,3.76,0,0,0,3.675-3h0.15a3.76,3.76,0,0,0,3.675,3h0.75v4.5A7.5,7.5,0,0,1,148.5,1892Zm9.75,9.75a2.25,2.25,0,0,1-4.5,0h4.5Zm-6,0a3.75,3.75,0,0,0,7.5,0h1.736l-3.682,6.75H154.2l-3.681-6.75h1.736Zm5.25,8.25v4.5h-3V1910h3Zm-26.69-28.5a3.309,3.309,0,0,0-2.34.97,1.808,1.808,0,0,1-1.281.53H124.5v-6h2.689a3.31,3.31,0,0,0,2.341-.97,1.807,1.807,0,0,1,1.28-.53H132v6h-1.19Zm1.19,9h3v3h-3v-3Zm9,14.25h-3.219a2.249,2.249,0,0,1-2.089-1.41l-3.334-8.34h2.9l2.8,6.3a0.758,0.758,0,0,0,.686.45H141v3Zm25.5,12.75h-21v-12a0.753,0.753,0,0,0-.75-0.75H142.5v-3h6.3l4.2,7.69v5.81a0.753,0.753,0,0,0,.75.75h4.5a0.753,0.753,0,0,0,.75-0.75v-5.81l4.195-7.69H166.5v15.75Z" transform="translate(-123 -1874)"/>
</svg>
